<svg width="40" height="40" viewBox="0 0 40 40" fill="none" xmlns="http://www.w3.org/2000/svg">
  <path d="M29.1723 0H10.8276C4.85717 0 0 4.85717 0 10.8276V29.1726C0 35.1428 4.85717 39.9999 10.8276 39.9999H29.1726C35.1428 39.9999 39.9999 35.1428 39.9999 29.1726V10.8276C39.9999 4.85717 35.1428 0 29.1723 0V0ZM37.655 29.1726C37.655 33.8497 33.8497 37.655 29.1723 37.655H10.8276C6.1502 37.655 2.34497 33.8497 2.34497 29.1726V10.8276C2.34497 6.1502 6.1502 2.34497 10.8276 2.34497H29.1726C33.8497 2.34497 37.655 6.1502 37.655 10.8276V29.1726Z" fill="url(#paint0_linear)"/>
  <path d="M20 9.06277C13.9691 9.06277 9.06281 13.9691 9.06281 20C9.06281 26.0308 13.9691 30.9371 20 30.9371C26.0309 30.9371 30.9372 26.0308 30.9372 20C30.9372 13.9691 26.0309 9.06277 20 9.06277ZM20 28.5922C15.2624 28.5922 11.4078 24.7378 11.4078 20C11.4078 15.2624 15.2624 11.4077 20 11.4077C24.7378 11.4077 28.5922 15.2624 28.5922 20C28.5922 24.7378 24.7378 28.5922 20 28.5922Z" fill="url(#paint1_linear)"/>
  <path d="M31.1987 5.1785C29.4164 5.1785 27.9669 6.62838 27.9669 8.4103C27.9669 10.1925 29.4164 11.6424 31.1987 11.6424C32.9809 11.6424 34.4308 10.1925 34.4308 8.4103C34.4308 6.62808 32.9809 5.1785 31.1987 5.1785ZM31.1987 9.29714C30.7098 9.29714 30.3118 8.89919 30.3118 8.4103C30.3118 7.92111 30.7098 7.52346 31.1987 7.52346C31.6879 7.52346 32.0858 7.92111 32.0858 8.4103C32.0858 8.89919 31.6879 9.29714 31.1987 9.29714Z" fill="url(#paint2_linear)"/>
  <defs>
    <linearGradient id="paint0_linear" x1="20" y1="0" x2="20" y2="39.9999" gradientUnits="userSpaceOnUse">
      <stop stop-color="#E37599"/>
      <stop offset="1" stop-color="#FF0053"/>
    </linearGradient>
    <linearGradient id="paint1_linear" x1="20" y1="9.06277" x2="20" y2="30.9371" gradientUnits="userSpaceOnUse">
      <stop stop-color="#E37599"/>
      <stop offset="1" stop-color="#FF0053"/>
    </linearGradient>
    <linearGradient id="paint2_linear" x1="31.1988" y1="5.1785" x2="31.1988" y2="11.6424" gradientUnits="userSpaceOnUse">
      <stop stop-color="#E37599"/>
      <stop offset="1" stop-color="#FF0053"/>
    </linearGradient>
  </defs>
</svg>
