<svg width="98" height="100" viewBox="0 0 98 100" fill="none" xmlns="http://www.w3.org/2000/svg">
  <path d="M96.4902 48.6723L90.0506 44.3793C89.639 44.1049 89.1238 44.0367 88.6545 44.1953L76.6312 48.2588L73.1185 46.2549C72.3527 45.8182 71.3783 46.0848 70.9418 46.8502C70.5049 47.6156 70.7715 48.5902 71.5371 49.027L73.2428 50L62.6539 56.0406L56.1726 52.2986V47.7016L62.6541 43.9594L65.9931 45.8643C66.7584 46.3008 67.7332 46.0346 68.1697 45.2689C68.6062 44.5035 68.3398 43.5289 67.5742 43.0922L65.8549 42.1113L74.2738 37.2508L84.6312 40.0262C84.7695 40.0633 84.9088 40.0809 85.0453 40.0809C85.75 40.0809 86.3947 39.6107 86.5855 38.8977C86.8136 38.0463 86.3086 37.1715 85.4572 36.9432L78.1826 34.9939L83.6386 31.8439L88.8648 33.2443C89.0031 33.2814 89.1424 33.299 89.2789 33.299C89.9836 33.299 90.6283 32.8289 90.8191 32.1158C91.0472 31.2645 90.5422 30.3895 89.6908 30.1613L87.5474 29.5871L91.7168 27.1799C92.4801 26.7393 92.7414 25.7633 92.3008 25.0002C91.8603 24.2367 90.884 23.9756 90.1211 24.4162L85.9515 26.8234L86.5258 24.6803C86.7539 23.8289 86.2488 22.9539 85.3974 22.7258C84.5459 22.4975 83.6711 23.0027 83.4429 23.8541L82.0426 29.0801L76.5875 32.2299L78.5367 24.9555C78.7648 24.1041 78.2597 23.2291 77.4084 23.001C76.5568 22.7727 75.682 23.2779 75.4539 24.1293L72.6789 34.4865L64.2596 39.3475L64.3238 26.941L73.8545 18.5604C74.2262 18.2336 74.4252 17.7531 74.3931 17.2594L73.8951 9.53594C73.8609 9.00352 73.5625 8.52344 73.1006 8.25684C72.6381 7.98984 72.0738 7.97188 71.5955 8.2084L64.6578 11.6389C64.2142 11.8582 63.8976 12.2707 63.8006 12.7559L61.3082 25.2002L50.5961 31.4592V21.7377L58.1785 14.1557C58.8017 13.5324 58.8017 12.5223 58.1785 11.899C57.5553 11.276 56.5451 11.2758 55.9217 11.899L50.5957 17.2238V10.9238L54.4215 7.09805C55.0447 6.4748 55.0447 5.46445 54.4215 4.84121C53.7982 4.21816 52.7881 4.21797 52.1646 4.84121L50.5957 6.41016V1.5957C50.5957 0.714453 49.8814 0 49 0C48.1185 0 47.4043 0.714453 47.4043 1.5957V6.41016L45.8353 4.84121C45.2117 4.21777 44.2015 4.21816 43.5785 4.84121C42.9553 5.46445 42.9553 6.4748 43.5785 7.09805L47.4043 10.9238V17.2238L42.0789 11.8982C41.4555 11.275 40.4453 11.275 39.8221 11.8982C39.1988 12.5215 39.1988 13.5318 39.8221 14.1549L47.4045 21.7369V31.4584L36.6924 25.1996L34.1998 12.7553C34.1027 12.2701 33.7861 11.8576 33.3426 11.6383L26.4049 8.20781C25.9267 7.97148 25.3619 7.98945 24.8998 8.25625C24.4377 8.52305 24.1396 9.00313 24.1053 9.53535L23.6072 17.2588C23.5756 17.7525 23.7742 18.233 24.1459 18.5598L33.6766 26.9404L33.7408 39.3469L25.3215 34.4859L22.5463 24.1287C22.3183 23.2773 21.4434 22.7721 20.5918 23.0004C19.7404 23.2285 19.2353 24.1035 19.4635 24.9549L21.4127 32.2293L15.9566 29.0793L14.5562 23.8533C14.3283 23.002 13.4533 22.4967 12.6017 22.725C11.7504 22.9531 11.2453 23.8281 11.4734 24.6795L12.0476 26.8227L7.87831 24.416C7.11445 23.9752 6.13867 24.2369 5.69843 25C5.25781 25.7633 5.51933 26.7391 6.28241 27.1799L10.4517 29.5871L8.30839 30.1613C7.45702 30.3895 6.95195 31.2645 7.18007 32.1158C7.37089 32.8287 8.01581 33.299 8.72031 33.299C8.85702 33.299 8.99609 33.2814 9.13437 33.2443L14.3605 31.8439L19.8166 34.9939L12.542 36.9432C11.6906 37.1713 11.1855 38.0463 11.4137 38.8977C11.6045 39.6105 12.2494 40.0809 12.9539 40.0809C13.0908 40.0809 13.2297 40.0633 13.368 40.0262L23.7254 37.2508L32.1443 42.1113L21.368 48.259L9.34452 44.1953C8.87558 44.0367 8.36015 44.1049 7.94843 44.3793L1.50995 48.6723C1.06601 48.9682 0.799408 49.4662 0.799408 50C0.799408 50.5336 1.06601 51.0318 1.50995 51.3277L7.9496 55.6207C8.21484 55.7977 8.52343 55.8889 8.83495 55.8889C9.00663 55.8889 9.1789 55.8611 9.3457 55.8049L21.3691 51.7412L32.1455 57.8889L23.7266 62.7494L13.3691 59.974C12.5174 59.7463 11.6428 60.251 11.4146 61.1025C11.1865 61.9539 11.6916 62.8287 12.543 63.057L19.8176 65.0062L14.3613 68.1562L9.13515 66.7559C8.28359 66.5283 7.40878 67.0328 7.18066 67.8842C6.95253 68.7355 7.45761 69.6105 8.30898 69.8387L10.4523 70.4129L6.283 72.8201C5.51972 73.2607 5.25839 74.2367 5.69902 75C5.99452 75.5119 6.53085 75.798 7.08241 75.798C7.35312 75.798 7.62773 75.7291 7.8789 75.584L12.0484 73.1768L11.4742 75.3199C11.2461 76.1713 11.7512 77.0463 12.6025 77.2744C12.7408 77.3115 12.8801 77.3291 13.0166 77.3291C13.7213 77.3291 14.366 76.8588 14.5568 76.1459L15.9572 70.9199L21.4133 67.7699L19.4641 75.0445C19.2359 75.8959 19.741 76.7707 20.5924 76.999C20.7307 77.0361 20.8699 77.0537 21.0064 77.0537C21.7111 77.0537 22.3559 76.5836 22.5467 75.8705L25.3219 65.5133L33.7412 60.6523L33.6769 73.0588L24.1463 81.4395C23.7746 81.7662 23.5756 82.2467 23.6076 82.7404L24.1057 90.4639C24.1398 90.9963 24.4383 91.4764 24.9002 91.7432C25.1465 91.8854 25.4221 91.957 25.698 91.957C25.94 91.957 26.1818 91.9021 26.4053 91.7918L33.343 88.3615C33.7865 88.1422 34.1031 87.7297 34.2002 87.2445L36.6926 74.8002L47.4047 68.5414V78.2627L39.8223 85.8447C39.199 86.468 39.199 87.4783 39.8223 88.1014C40.4457 88.7246 41.4558 88.7248 42.0791 88.1014L47.4045 82.776V89.076L43.5787 92.9018C42.9555 93.525 42.9555 94.5354 43.5787 95.1584C44.2021 95.7816 45.2123 95.7816 45.8355 95.1584L47.4045 93.5895V98.4041C47.4045 99.2854 48.1187 99.9998 49.0002 99.9998C49.8816 99.9998 50.5959 99.2854 50.5959 98.4041V93.5896L52.1648 95.1586C52.4765 95.4701 52.8851 95.626 53.2933 95.626C53.7015 95.626 54.1101 95.4703 54.4219 95.1586C55.0451 94.5354 55.0451 93.525 54.4219 92.902L50.5957 89.0762V82.7762L55.9211 88.1016C56.2328 88.4131 56.641 88.5689 57.0496 88.5689C57.458 88.5689 57.8664 88.4133 58.1781 88.1016C58.8013 87.4783 58.8013 86.468 58.1781 85.8449L50.5957 78.2629V68.5416L61.3078 74.8004L63.8002 87.2447C63.8972 87.7299 64.2138 88.1424 64.6574 88.3617L71.5951 91.7922C71.8185 91.9025 72.0607 91.9574 72.3023 91.9574C72.5783 91.9574 72.8541 91.8859 73.1002 91.7436C73.5623 91.4768 73.8603 90.9967 73.8947 90.4643L74.3928 82.7408C74.4244 82.2473 74.2258 81.7666 73.8541 81.4398L64.3234 73.0592L64.2592 60.6527L72.6785 65.5137L75.4537 75.8709C75.6445 76.5838 76.2894 77.0541 76.9939 77.0541C77.1306 77.0541 77.2697 77.0365 77.408 76.9994C78.2594 76.7713 78.7644 75.8963 78.5363 75.0449L76.5871 67.7703L82.0429 70.9203L83.4433 76.1463C83.6342 76.8592 84.2791 77.3295 84.9836 77.3295C85.1205 77.3295 85.2594 77.3119 85.3976 77.2748C86.249 77.0467 86.7541 76.1717 86.526 75.3203L85.9517 73.1771L90.1213 75.5844C90.3728 75.7295 90.647 75.7984 90.9177 75.7984C91.4693 75.7984 92.0056 75.5121 92.3011 75.0004C92.7418 74.2371 92.4803 73.2613 91.7172 72.8205L87.5478 70.4133L89.6912 69.8391C90.5426 69.6109 91.0476 68.7359 90.8195 67.8846C90.5914 67.0332 89.7164 66.5289 88.865 66.7562L83.6388 68.1566L78.1828 65.0066L85.4574 63.0574C86.3088 62.8293 86.8138 61.9543 86.5857 61.1029C86.3578 60.2516 85.4828 59.7467 84.6312 59.9744L74.2738 62.7498L65.8549 57.8893L76.6312 51.7416L88.6547 55.8053C88.8213 55.8617 88.9937 55.8893 89.1652 55.8893C89.4767 55.8893 89.7851 55.7982 90.0506 55.6211L96.4902 51.3281C96.9342 51.0322 97.2008 50.5342 97.2008 50.0004C97.2008 49.4666 96.9342 48.9682 96.4902 48.6723ZM66.7756 14.1518L70.8642 12.1301L71.1578 16.6818L65.2236 21.9L66.7756 14.1518ZM26.8422 16.6818L27.1357 12.1301L31.2244 14.1518L32.7764 21.9L26.8422 16.6818ZM9.06659 52.5303L5.27167 50L9.06679 47.4697L16.5527 50L9.06659 52.5303ZM31.2244 85.8482L27.1357 87.8699L26.8422 83.318L32.7764 78.0998L31.2244 85.8482ZM50.5957 35.1549L61.1215 29.0051L61.0584 41.1955L54.5769 44.9377L50.5959 42.6393V35.1549H50.5957ZM47.4043 35.1549V42.6391L43.4232 44.9375L36.9418 41.1953L36.8785 29.0049L47.4043 35.1549ZM35.3461 56.0406L24.7572 50L35.3461 43.9594L41.8273 47.7014V52.2984L35.3461 56.0406ZM36.8785 70.9949L36.9418 58.8045L43.4232 55.0623L47.4041 57.3607V64.8449H47.4043L36.8785 70.9949ZM49 54.5971L45.0189 52.2986V47.7016L49 45.4029L52.981 47.7014V52.2984L49 54.5971ZM50.5957 64.8451V57.3609L54.5765 55.0625L61.058 58.8047L61.1211 70.9951L50.5957 64.8451ZM71.1578 83.3182L70.8642 87.8699L66.7756 85.8482L65.2236 78.1002L71.1578 83.3182ZM88.9334 52.5303L81.4472 50L88.9334 47.4697L92.7283 50L88.9334 52.5303Z" fill="url(#paint0_linear)"/>
  <defs>
    <linearGradient id="paint0_linear" x1="49.0001" y1="0" x2="49.0001" y2="99.9998" gradientUnits="userSpaceOnUse">
      <stop stop-color="#E37599"/>
      <stop offset="1" stop-color="#FF0053"/>
    </linearGradient>
  </defs>
</svg>
