<svg width="88" height="100" viewBox="0 0 88 100" fill="none" xmlns="http://www.w3.org/2000/svg">
  <path d="M50.5673 75.5565C46.9464 79.1774 41.055 79.1774 37.4344 75.5565C36.6933 74.8155 35.4919 74.8155 34.7508 75.5565C34.0095 76.2976 34.0095 77.4991 34.7508 78.2401C37.3011 80.7904 40.651 82.0655 44.001 82.0655C47.3509 82.0655 50.7008 80.7904 53.2511 78.2401C53.9924 77.4991 53.9924 76.2976 53.2511 75.5565C52.5101 74.8155 51.3083 74.8155 50.5673 75.5565Z" fill="url(#paint0_linear)"/>
  <path d="M86.946 94.3834C82.5006 89.4607 82.3125 76.9173 82.8386 63.9388C84.775 62.1201 85.9881 59.5397 85.9881 56.6799C85.9881 54.1685 85.0521 51.873 83.5132 50.1188C84.1599 36.8813 84.5029 28.0289 80.304 19.855C77.4394 14.2776 72.8042 9.61753 66.5275 6.00428C59.2121 1.79326 50.8674 -0.273825 42.3945 0.0290978C34.9522 0.294303 28.0234 3.76166 23.2454 9.57934C17.076 9.94631 11.4637 13.3038 8.44422 18.4931C8.18494 18.9386 7.93421 19.3967 7.69889 19.8547C3.49759 28.0332 3.84037 36.8848 4.48701 50.1209C2.94915 51.8749 2.01405 54.1694 2.01405 56.6799C2.01405 59.5388 3.22622 62.1185 5.16165 63.9372C5.68779 76.9166 5.49968 89.461 1.05429 94.3836C0.633942 94.849 0.470738 95.4924 0.618285 96.102C0.765832 96.7116 1.20515 97.2091 1.79178 97.4309C6.79534 99.3215 11.6412 99.9975 16.0147 99.9975C20.558 99.9975 24.5916 99.2674 27.7582 98.411C33.2604 96.9232 37.1412 94.8348 38.4653 94.0641C40.2674 94.3611 42.1161 94.5184 44.001 94.5184C45.8854 94.5184 47.7335 94.3613 49.5352 94.0643C50.8595 94.8353 54.7401 96.9232 60.2418 98.411C64.4659 99.5532 68.3818 99.9999 71.9244 99.9999C77.8256 99.9999 82.6896 98.76 86.2082 97.4304C86.7951 97.2086 87.2342 96.7114 87.3817 96.1015C87.5295 95.4921 87.3663 94.849 86.946 94.3834ZM77.9226 60.597V51.176C77.9231 51.1511 77.9231 51.126 77.9226 51.1008V50.8121C80.3974 51.6146 82.1924 53.941 82.1924 56.6796C82.1924 59.4401 80.3694 61.7828 77.864 62.567C77.9015 61.9149 77.9226 61.2586 77.9226 60.597ZM11.0749 21.589C11.2801 21.1898 11.4986 20.7903 11.7247 20.402C14.2242 16.1063 19.0048 13.4011 24.2007 13.342C24.2066 13.342 24.2209 13.3418 24.227 13.3416C24.8035 13.3295 25.3429 13.0562 25.6937 12.5988C29.7892 7.25654 35.9257 4.05747 42.5298 3.82191C50.2912 3.54509 57.9349 5.43734 64.6336 9.2935C70.2663 12.536 74.4026 16.6728 76.9275 21.589C80.2883 28.1314 80.388 35.248 79.8369 47.4762C79.2268 47.2226 78.5863 47.0288 77.9226 46.9V44.9703C77.9226 43.9222 77.0729 43.0725 76.0249 43.0725C74.9769 43.0725 74.1272 43.9222 74.1272 44.9703V49.2802C47.9864 49.5594 33.8351 36.9683 30.0592 33.0289C29.6149 32.5654 28.9663 32.3581 28.3363 32.4774C27.7055 32.5967 27.178 33.0268 26.9339 33.6205C24.1763 40.3285 19.3582 43.838 11.7716 44.665C10.8088 44.7698 10.0796 45.583 10.0796 46.5515V46.8998C9.41514 47.0286 8.77395 47.2226 8.16336 47.4767C7.61207 35.2514 7.71241 28.1349 11.0749 21.589ZM10.1379 62.5673C7.63247 61.7831 5.80948 59.4403 5.80948 56.6799C5.80948 53.941 7.60448 51.6146 10.0793 50.8124V60.597C10.0793 61.2586 10.1004 61.9149 10.1379 62.5673ZM5.50205 94.6823C8.88615 88.9061 9.47302 79.3039 9.04271 66.2012C9.54655 66.3568 10.0679 66.4716 10.6022 66.5456C12.7606 78.6974 21.4115 88.6314 32.8279 92.6256C27.3371 94.9883 16.9448 98.119 5.50205 94.6823ZM44.001 90.7229C27.3893 90.7229 13.8748 77.2084 13.8748 60.5967L13.875 48.2078C20.9921 47.0366 26.0593 43.533 29.2714 37.5547C32.0055 40.049 36.4262 43.4699 42.6564 46.468C52.024 50.9761 62.6031 53.1995 74.1272 53.0763V60.5967C74.1272 77.2086 60.6126 90.7229 44.001 90.7229ZM61.3574 94.7807C58.9241 94.1303 56.8245 93.3444 55.1671 92.628C66.5871 88.6357 75.2411 78.7 77.4 66.5456C77.9337 66.4716 78.4544 66.357 78.9578 66.2016C78.5272 79.3061 79.1139 88.9082 82.4996 94.6842C75.7976 96.7088 68.6978 96.743 61.3574 94.7807Z" fill="url(#paint1_linear)"/>
  <path d="M21.3185 54.9729C20.5772 55.714 20.5772 56.9155 21.3185 57.6565C22.0596 58.3976 23.2611 58.3976 24.0021 57.6565C25.2186 56.4406 27.1974 56.4403 28.4139 57.6565C28.7844 58.027 29.27 58.2123 29.7558 58.2123C30.2416 58.2123 30.7272 58.027 31.0977 57.6565C31.839 56.9155 31.839 55.714 31.0977 54.9729C28.4018 52.2767 24.0145 52.2765 21.3185 54.9729Z" fill="url(#paint2_linear)"/>
  <path d="M66.6836 57.6564C67.4249 56.9154 67.4249 55.7139 66.6836 54.9728C63.9875 52.2766 59.6004 52.2766 56.9045 54.9728C56.1632 55.7139 56.1632 56.9154 56.9045 57.6564C57.6455 58.3975 58.847 58.3975 59.5881 57.6564C60.8045 56.4402 62.7836 56.4405 63.9998 57.6564C64.3703 58.0269 64.8559 58.2122 65.3417 58.2122C65.8275 58.2122 66.3131 58.0269 66.6836 57.6564Z" fill="url(#paint3_linear)"/>
  <defs>
    <linearGradient id="paint0_linear" x1="44.001" y1="75.0007" x2="44.001" y2="82.0655" gradientUnits="userSpaceOnUse">
      <stop stop-color="#E37599"/>
      <stop offset="1" stop-color="#FF0053"/>
    </linearGradient>
    <linearGradient id="paint1_linear" x1="1" y1="42" x2="44.0001" y2="99.9999" gradientUnits="userSpaceOnUse">
      <stop stop-color="#E37599"/>
      <stop offset="1" stop-color="#FF0053"/>
    </linearGradient>
    <linearGradient id="paint2_linear" x1="26.2081" y1="52.9507" x2="26.2081" y2="58.2123" gradientUnits="userSpaceOnUse">
      <stop stop-color="#E37599"/>
      <stop offset="1" stop-color="#FF0053"/>
    </linearGradient>
    <linearGradient id="paint3_linear" x1="61.7941" y1="52.9507" x2="61.7941" y2="58.2122" gradientUnits="userSpaceOnUse">
      <stop stop-color="#E37599"/>
      <stop offset="1" stop-color="#FF0053"/>
    </linearGradient>
  </defs>
</svg>
