<svg width="50" height="50" viewBox="0 0 50 50" fill="none" xmlns="http://www.w3.org/2000/svg">
  <path d="M25.0063 0H24.9937C11.2094 0 0 11.2125 0 25C0 30.4688 1.7625 35.5375 4.75938 39.6531L1.64375 48.9406L11.2531 45.8688C15.2063 48.4875 19.9219 50 25.0063 50C38.7906 50 50 38.7844 50 25C50 11.2156 38.7906 0 25.0063 0Z" fill="#4CAF50"/>
  <path d="M39.5532 35.3031C38.95 37.0062 36.5563 38.4187 34.6469 38.8312C33.3407 39.1094 31.6344 39.3312 25.8907 36.95C18.5438 33.9062 13.8125 26.4406 13.4438 25.9562C13.0907 25.4719 10.475 22.0031 10.475 18.4156C10.475 14.8281 12.2969 13.0813 13.0313 12.3313C13.6344 11.7156 14.6313 11.4344 15.5875 11.4344C15.8969 11.4344 16.175 11.45 16.425 11.4625C17.1594 11.4938 17.5282 11.5375 18.0125 12.6969C18.6157 14.15 20.0844 17.7375 20.2594 18.1062C20.4375 18.475 20.6157 18.975 20.3657 19.4594C20.1313 19.9594 19.925 20.1812 19.5563 20.6062C19.1875 21.0312 18.8375 21.3562 18.4688 21.8125C18.1313 22.2094 17.75 22.6344 18.175 23.3687C18.6 24.0875 20.0688 26.4844 22.2313 28.4094C25.0219 30.8937 27.2844 31.6875 28.0938 32.025C28.6969 32.275 29.4157 32.2156 29.8563 31.7469C30.4157 31.1437 31.1063 30.1437 31.8094 29.1594C32.3094 28.4531 32.9407 28.3656 33.6032 28.6156C34.2782 28.85 37.85 30.6156 38.5844 30.9812C39.3188 31.35 39.8032 31.525 39.9813 31.8344C40.1563 32.1437 40.1563 33.5969 39.5532 35.3031Z" fill="#FAFAFA"/>
</svg>
