<svg width="19" height="25" viewBox="0 0 19 25" fill="none" xmlns="http://www.w3.org/2000/svg">
  <path d="M9.5815 5.47876C7.81962 5.47876 6.38556 6.91282 6.38556 8.6747C6.38556 10.4366 7.81962 11.8706 9.5815 11.8706C11.3434 11.8706 12.7774 10.4366 12.7774 8.6747C12.7774 6.91282 11.3434 5.47876 9.5815 5.47876ZM9.5815 10.9575C8.32275 10.9575 7.29868 9.93344 7.29868 8.6747C7.29868 7.41595 8.32275 6.39188 9.5815 6.39188C10.8402 6.39188 11.8643 7.41595 11.8643 8.6747C11.8643 9.93344 10.8402 10.9575 9.5815 10.9575Z" fill="#FF0053"/>
  <path d="M15.6917 2.56451C14.038 0.910843 11.8392 0 9.50068 0C7.16171 0 4.96337 0.910843 3.3097 2.56451C0.249357 5.6244 -0.130959 11.3816 2.48606 14.8698L9.50068 25L16.5048 14.8839C19.1323 11.3816 18.752 5.6244 15.6917 2.56451ZM15.7643 14.3502L9.50068 23.3956L3.22706 14.3361C0.85339 11.1712 1.19353 5.97184 3.95573 3.21009C5.43682 1.729 7.40598 0.913125 9.50068 0.913125C11.5954 0.913125 13.5645 1.729 15.0461 3.21009C17.8083 5.97184 18.1484 11.1712 15.7643 14.3502Z" fill="#FF0053"/>
</svg>
