<svg width="50" height="50" viewBox="0 0 50 50" fill="none" xmlns="http://www.w3.org/2000/svg">
  <path d="M39.2128 33.144L33.1407 29.0943C32.3701 28.5845 31.3372 28.7522 30.7675 29.4797L28.9988 31.7541C28.7715 32.0538 28.3583 32.1408 28.0294 31.9581L27.693 31.7726C26.5776 31.1646 25.1899 30.4077 22.3938 27.6104C19.5977 24.8131 18.8393 23.4242 18.2314 22.3108L18.0469 21.9744C17.8617 21.6455 17.947 21.2306 18.2468 21.0014L20.5195 19.2331C21.2466 18.6633 21.4146 17.6306 20.9054 16.8597L16.856 10.7872C16.3342 10.0022 15.2873 9.76658 14.4795 10.2522L11.9403 11.7776C11.1425 12.2467 10.5572 13.0063 10.3071 13.8974C9.39275 17.2292 10.0806 22.9792 18.5504 31.4506C25.2879 38.188 30.3036 39.9999 33.7511 39.9999C34.5446 40.0033 35.3349 39.9001 36.1008 39.693C36.992 39.4431 37.7517 38.8577 38.2205 38.0596L39.7473 35.5218C40.2336 34.7138 39.9981 33.6661 39.2128 33.144ZM38.8858 35.0088L37.3626 37.5481C37.026 38.1242 36.4796 38.5477 35.8378 38.7301C32.7622 39.5745 27.389 38.8751 19.2577 30.7432C11.1264 22.6113 10.4271 17.2382 11.2715 14.1619C11.454 13.5193 11.878 12.9722 12.4548 12.6351L14.9939 11.1117C15.3444 10.9008 15.7988 11.003 16.0252 11.3436L18.2249 14.6464L20.0712 17.4156C20.2923 17.75 20.2196 18.1982 19.9042 18.4456L17.631 20.2139C16.9393 20.7429 16.7417 21.7001 17.1676 22.4598L17.3481 22.7877C17.9871 23.9597 18.7814 25.4175 21.6815 28.3173C24.5816 31.2171 26.0389 32.0116 27.2102 32.6505L27.5386 32.8315C28.2982 33.2573 29.2553 33.0598 29.7843 32.368L31.5525 30.0947C31.8 29.7794 32.2479 29.7068 32.5824 29.9277L38.6539 33.9774C38.9948 34.2037 39.097 34.6583 38.8858 35.0088Z" fill="#FF0053"/>
  <path d="M26.9991 15.0013C31.6906 15.0065 35.4925 18.8088 35.4978 23.5006C35.4978 23.7768 35.7216 24.0006 35.9977 24.0006C36.2738 24.0006 36.4976 23.7768 36.4976 23.5006C36.4918 18.2567 32.2426 14.0071 26.9991 14.0014C26.7229 14.0014 26.4991 14.2252 26.4991 14.5013C26.4991 14.7775 26.7229 15.0013 26.9991 15.0013Z" fill="#FF0053"/>
  <path d="M26.9991 18.001C30.0347 18.0046 32.4947 20.4648 32.4982 23.5006C32.4982 23.7768 32.7221 24.0006 32.9981 24.0006C33.2742 24.0006 33.498 23.7768 33.498 23.5006C33.4939 19.9127 30.5866 17.0053 26.9991 17.0012C26.7229 17.0012 26.4991 17.225 26.4991 17.5011C26.4991 17.7772 26.7229 18.001 26.9991 18.001Z" fill="#FF0053"/>
  <path d="M26.999 21.0008C28.3788 21.0024 29.497 22.1207 29.4987 23.5006C29.4987 23.7768 29.7225 24.0006 29.9986 24.0006C30.2746 24.0006 30.4985 23.7768 30.4985 23.5006C30.4962 21.5687 28.9308 20.0031 26.999 20.0009C26.7229 20.0009 26.4991 20.2247 26.4991 20.5009C26.4991 20.777 26.7229 21.0008 26.999 21.0008Z" fill="#FF0053"/>
  <circle cx="25" cy="25" r="24.5" stroke="url(#paint0_linear)"/>
  <defs>
    <linearGradient id="paint0_linear" x1="25" y1="0" x2="25" y2="50" gradientUnits="userSpaceOnUse">
      <stop stop-color="#E37599"/>
      <stop offset="1" stop-color="#FF0053"/>
    </linearGradient>
  </defs>
</svg>
