<svg width="100" height="100" viewBox="0 0 100 100" fill="none" xmlns="http://www.w3.org/2000/svg">
  <g clip-path="url(#clip0)">
    <path d="M5.83109 46.7492L12.9859 51.127C14.2662 51.9105 15.8645 50.9393 15.8645 49.3867V48.565H28.9795C30.9402 48.565 32.5355 46.9697 32.5355 45.0082C32.5355 43.0475 30.9402 41.4522 28.9795 41.4522H15.8645V40.6305C15.8645 39.0733 14.2631 38.1082 12.9859 38.8902L5.83109 43.268C4.5669 44.0416 4.56613 45.9741 5.83109 46.7492ZM12.9348 42.3562V42.917C12.9348 43.7265 13.5902 44.3818 14.3997 44.3818H28.9795C29.3251 44.3818 29.6058 44.6634 29.6058 45.0082C29.6058 45.3538 29.3251 45.6354 28.9795 45.6354H14.3997C13.5902 45.6354 12.9348 46.2907 12.9348 47.1002V47.661L8.60057 45.0082L12.9348 42.3562Z" fill="url(#paint0_linear)"/>
    <path d="M87.188 38.8901C85.9108 38.1081 84.3087 39.074 84.3087 40.6304V41.4521H71.1945C69.233 41.4521 67.6377 43.0474 67.6377 45.0081C67.6377 46.9696 69.233 48.565 71.1945 48.565H84.3087V49.3866C84.3087 50.9423 85.9101 51.9089 87.188 51.1269L94.3429 46.7492C95.6071 45.9748 95.6078 44.0422 94.3421 43.2679L87.188 38.8901ZM87.2391 47.6609V47.0993C87.2391 46.2906 86.583 45.6345 85.7743 45.6345H71.1945C70.8489 45.6345 70.5674 45.3537 70.5674 45.0081C70.5674 44.6625 70.8489 44.3817 71.1945 44.3817H85.7743C86.583 44.3817 87.2391 43.7256 87.2391 42.9169V42.3561L91.5734 45.0081L87.2391 47.6609Z" fill="url(#paint1_linear)"/>
    <path d="M62.497 32.5981C63.887 33.9874 66.137 33.9882 67.527 32.5981L76.8006 23.3246L77.3819 23.9059C78.4821 25.0053 80.2971 24.556 80.6481 23.1003L82.6111 14.946C82.9583 13.5055 81.5926 12.1368 80.1499 12.484L71.9948 14.447C70.5391 14.798 70.0898 16.613 71.1899 17.7132L71.7713 18.2945L62.4977 27.5681C61.1077 28.9581 61.1077 31.208 62.497 32.5981ZM64.5691 29.6402L74.8787 19.3306C75.4502 18.7591 75.4509 17.8314 74.8787 17.2592L74.482 16.8625L79.422 15.673L78.2334 20.6138L77.8366 20.2171C77.2644 19.6449 76.3367 19.6449 75.7645 20.2171L65.4549 30.526C65.2107 30.7709 64.814 30.7709 64.5691 30.526C64.3242 30.2818 64.3242 29.8843 64.5691 29.6402Z" fill="url(#paint2_linear)"/>
    <path d="M28.1791 14.4479L20.0241 12.4841C18.5836 12.1377 17.2157 13.5026 17.5628 14.9461L19.5259 23.1004C19.8768 24.5569 21.6918 25.0055 22.792 23.9053L23.3734 23.3247L32.6469 32.5983C34.0332 33.9845 36.2899 33.9845 37.677 32.5983C39.0632 31.2112 39.0632 28.9552 37.677 27.569L28.4027 18.2954L28.984 17.7141C30.0842 16.6139 29.6348 14.7981 28.1791 14.4479ZM35.6048 29.6403C35.849 29.8845 35.849 30.282 35.6048 30.5261C35.3599 30.7703 34.9632 30.7703 34.719 30.5261L24.4094 20.2165C23.8372 19.6451 22.9103 19.6451 22.3373 20.2165L21.9413 20.6132L20.7519 15.6732L25.6919 16.8626L25.2952 17.2593C24.723 17.8315 24.723 18.7593 25.2952 19.3307L35.6048 29.6403Z" fill="url(#paint3_linear)"/>
    <path d="M41.0149 68.4144C28.0571 73.4384 29.0024 73.0607 28.6567 73.2316C27.2957 73.9061 22.5578 76.7068 22.5578 83.0232V95.8131C22.5578 98.0135 24.3477 99.8048 26.5495 99.8048H46.7964C47.6059 99.8048 48.262 99.1487 48.262 98.34C48.262 97.5305 47.6059 96.8751 46.7964 96.8751H34.9235V85.1961C34.9235 84.3866 34.2674 83.7312 33.4587 83.7312C32.6492 83.7312 31.9938 84.3866 31.9938 85.1961V96.8751H26.5495C25.9643 96.8751 25.4875 96.3991 25.4875 95.8131V83.0232C25.4875 79.6472 27.6451 76.8464 30.1155 75.7821C31.5437 75.2282 39.9032 71.988 41.1529 71.5028L41.98 72.3817C46.4355 77.1158 53.7392 77.1142 58.1932 72.3817L59.0851 71.4341C60.3539 71.9247 69.2673 75.377 70.3141 75.7821C70.5406 75.8806 74.9413 77.8558 74.9413 83.0232V95.8131C74.9413 96.3983 74.4652 96.8751 73.88 96.8751H68.4357V85.1961C68.4357 84.3866 67.7803 83.7312 66.9708 83.7312C66.1614 83.7312 65.506 84.3866 65.506 85.1961V96.8751H53.6331C52.8236 96.8751 52.1683 97.5305 52.1683 98.34C52.1683 99.1487 52.8236 99.8048 53.6331 99.8048H73.8808C76.0819 99.8048 77.8717 98.0142 77.8717 95.8131V83.0232C77.8717 76.7068 73.1339 73.9061 71.7728 73.2316C71.3898 73.0424 72.7318 73.5765 57.338 67.6149V64.5997C59.5429 62.8427 61.0878 60.2914 61.5288 57.3815C64.3242 57.0733 66.3399 54.7662 66.3399 52.0677C66.3399 50.8126 65.8997 49.6118 65.1116 48.6634V44.3574C65.1116 36.0726 58.3717 29.332 50.087 29.332C41.8022 29.332 35.0616 36.0726 35.0616 44.3574V48.7771C34.2651 49.714 33.8341 50.8569 33.8341 52.0677C33.8341 54.7517 35.836 57.0771 38.6543 57.3823C39.1006 60.2189 40.6364 62.9457 43.0756 64.7828V67.6156L41.0149 68.4144ZM61.6585 54.3801V49.7552C62.6938 50.0588 63.4102 50.9873 63.4102 52.0677C63.4102 53.1312 62.7167 54.0704 61.6585 54.3801ZM37.9913 44.3574C37.9913 37.6878 43.4174 32.2617 50.087 32.2617C56.7558 32.2617 62.1819 37.6878 62.1819 44.3574V46.8621C62.0094 46.8217 61.8347 46.7904 61.657 46.7667C61.6371 46.0542 61.3495 45.6689 60.7437 44.9845C60.3607 44.5496 59.005 43.1146 57.8377 41.8603C57.0397 41.002 55.751 40.8547 54.7829 41.4872C51.2939 43.7661 47.1542 45.0761 43.1572 45.2111C41.1293 45.2798 40.3007 44.8647 39.2815 45.8077C38.9854 46.0824 38.7573 46.4547 38.6421 46.7973C38.4361 46.827 38.1477 46.8903 37.9913 46.9315V44.3574ZM36.7645 52.0677C36.7645 51.0438 37.5336 50.1954 38.5162 49.8399V54.3801C37.4473 54.0681 36.7645 53.1205 36.7645 52.0677ZM41.4459 55.6611C41.4459 51.7281 41.4459 52.0852 41.4459 48.1339C46.3745 48.3552 51.6228 46.9346 56.0005 44.1865C57.486 45.7795 58.3893 46.7255 58.7288 47.1223C58.7288 57.0825 58.7296 55.4795 58.7258 55.7694C58.5747 60.7446 54.6227 64.158 50.2312 64.158C45.0577 64.158 41.4459 60.1724 41.4459 55.6611ZM54.4083 66.2973V67.6942C54.4083 68.8226 55.101 69.8556 56.1386 70.2897C52.6604 73.9839 47.3549 73.8069 44.1009 70.3599C45.33 69.8838 46.006 68.7791 46.006 67.6454V66.3682C48.5573 67.2914 51.6419 67.386 54.4083 66.2973Z" fill="url(#paint4_linear)"/>
    <path d="M50.7133 9.32161V13.6307C50.7133 14.4402 51.3687 15.0955 52.1782 15.0955C52.9877 15.0955 53.643 14.4402 53.643 13.6307V10.7865H54.4647C56.0219 10.7865 56.987 9.18428 56.2058 7.90788L51.8272 0.753786C51.0544 -0.510407 49.1211 -0.512696 48.3459 0.753023L43.9682 7.90788C43.1862 9.18581 44.1543 10.7865 45.7085 10.7865H46.5301V23.9014C46.5301 25.8622 48.1262 27.4575 50.087 27.4575C52.0477 27.4575 53.643 25.8622 53.643 23.9014V20.4674C53.643 19.6587 52.9877 19.0026 52.1782 19.0026C51.3687 19.0026 50.7133 19.6587 50.7133 20.4674V23.9014C50.7133 24.247 50.4326 24.5278 50.087 24.5278C49.7414 24.5278 49.4606 24.247 49.4606 23.9014V9.32161C49.4606 8.51213 48.8045 7.85676 47.9958 7.85676H47.4342L50.087 3.52173L52.739 7.85676H52.1782C51.3687 7.85676 50.7133 8.51213 50.7133 9.32161Z" fill="url(#paint5_linear)"/>
  </g>
  <defs>
    <linearGradient id="paint0_linear" x1="18.7091" y1="38.613" x2="18.7091" y2="51.4042" gradientUnits="userSpaceOnUse">
      <stop stop-color="#E37599"/>
      <stop offset="1" stop-color="#FF0053"/>
    </linearGradient>
    <linearGradient id="paint1_linear" x1="81.4644" y1="38.613" x2="81.4644" y2="51.4039" gradientUnits="userSpaceOnUse">
      <stop stop-color="#E37599"/>
      <stop offset="1" stop-color="#FF0053"/>
    </linearGradient>
    <linearGradient id="paint2_linear" x1="72.0604" y1="12.4294" x2="72.0604" y2="33.6404" gradientUnits="userSpaceOnUse">
      <stop stop-color="#E37599"/>
      <stop offset="1" stop-color="#FF0053"/>
    </linearGradient>
    <linearGradient id="paint3_linear" x1="28.1125" y1="12.4297" x2="28.1125" y2="33.638" gradientUnits="userSpaceOnUse">
      <stop stop-color="#E37599"/>
      <stop offset="1" stop-color="#FF0053"/>
    </linearGradient>
    <linearGradient id="paint4_linear" x1="50.2148" y1="29.332" x2="50.2148" y2="99.8048" gradientUnits="userSpaceOnUse">
      <stop stop-color="#E37599"/>
      <stop offset="1" stop-color="#FF0053"/>
    </linearGradient>
    <linearGradient id="paint5_linear" x1="50.087" y1="-0.195313" x2="50.087" y2="27.4575" gradientUnits="userSpaceOnUse">
      <stop stop-color="#E37599"/>
      <stop offset="1" stop-color="#FF0053"/>
    </linearGradient>
    <clipPath id="clip0">
      <rect width="100" height="100" fill="white"/>
    </clipPath>
  </defs>
</svg>
